<?xml version="1.0" encoding="UTF-8"?>
<!DOCTYPE svg PUBLIC "-//W3C//DTD SVG 1.1//EN" "http://www.w3.org/Graphics/SVG/1.1/DTD/svg11.dtd">
<svg xmlns="http://www.w3.org/2000/svg" xmlns:xlink="http://www.w3.org/1999/xlink" version="1.1" width="317px" height="102px" viewBox="-0.5 -0.5 317 102" style="background-color: rgb(255, 255, 255);"><defs/><g><path d="M 0 20.04 L 42.5 20.04 L 52.5 30.04 L 52.5 89.61 L 10 89.61 L 0 79.61 L 0 20.04 Z" fill="rgb(255, 255, 255)" stroke="rgb(0, 0, 0)" stroke-miterlimit="10" pointer-events="none"/><path d="M 0 20.04 L 42.5 20.04 L 52.5 30.04 L 10 30.04 Z" fill-opacity="0.05" fill="#000000" stroke="none" pointer-events="none"/><path d="M 0 20.04 L 10 30.04 L 10 89.61 L 0 79.61 Z" fill-opacity="0.1" fill="#000000" stroke="none" pointer-events="none"/><path d="M 10 89.61 L 10 30.04 L 0 20.04 M 10 30.04 L 52.5 30.04" fill="none" stroke="rgb(0, 0, 0)" stroke-miterlimit="10" pointer-events="none"/><path d="M 10.25 30.43 L 52.75 30.43 L 62.75 40.43 L 62.75 100 L 20.25 100 L 10.25 90 L 10.25 30.43 Z" fill="rgb(255, 255, 255)" stroke="rgb(0, 0, 0)" stroke-miterlimit="10" pointer-events="none"/><path d="M 10.25 30.43 L 52.75 30.43 L 62.75 40.43 L 20.25 40.43 Z" fill-opacity="0.05" fill="#000000" stroke="none" pointer-events="none"/><path d="M 10.25 30.43 L 20.25 40.43 L 20.25 100 L 10.25 90 Z" fill-opacity="0.1" fill="#000000" stroke="none" pointer-events="none"/><path d="M 20.25 100 L 20.25 40.43 L 10.25 30.43 M 20.25 40.43 L 62.75 40.43" fill="none" stroke="rgb(0, 0, 0)" stroke-miterlimit="10" pointer-events="none"/><path d="M 251.75 20 L 294.25 20 L 304.25 30 L 304.25 89.57 L 261.75 89.57 L 251.75 79.57 L 251.75 20 Z" fill="rgb(255, 255, 255)" stroke="rgb(0, 0, 0)" stroke-miterlimit="10" pointer-events="none"/><path d="M 251.75 20 L 294.25 20 L 304.25 30 L 261.75 30 Z" fill-opacity="0.05" fill="#000000" stroke="none" pointer-events="none"/><path d="M 251.75 20 L 261.75 30 L 261.75 89.57 L 251.75 79.57 Z" fill-opacity="0.1" fill="#000000" stroke="none" pointer-events="none"/><path d="M 261.75 89.57 L 261.75 30 L 251.75 20 M 261.75 30 L 304.25 30" fill="none" stroke="rgb(0, 0, 0)" stroke-miterlimit="10" pointer-events="none"/><path d="M 262.5 30.43 L 305 30.43 L 315 40.43 L 315 100 L 272.5 100 L 262.5 90 L 262.5 30.43 Z" fill="rgb(255, 255, 255)" stroke="rgb(0, 0, 0)" stroke-miterlimit="10" pointer-events="none"/><path d="M 262.5 30.43 L 305 30.43 L 315 40.43 L 272.5 40.43 Z" fill-opacity="0.05" fill="#000000" stroke="none" pointer-events="none"/><path d="M 262.5 30.43 L 272.5 40.43 L 272.5 100 L 262.5 90 Z" fill-opacity="0.1" fill="#000000" stroke="none" pointer-events="none"/><path d="M 272.5 100 L 272.5 40.43 L 262.5 30.43 M 272.5 40.43 L 315 40.43" fill="none" stroke="rgb(0, 0, 0)" stroke-miterlimit="10" pointer-events="none"/><path d="M 0 0 L 295 0 L 315 20 L 315 60.87 L 20 60.87 L 0 40.87 L 0 0 Z" fill="rgb(255, 255, 255)" stroke="rgb(0, 0, 0)" stroke-miterlimit="10" pointer-events="none"/><path d="M 0 0 L 295 0 L 315 20 L 20 20 Z" fill-opacity="0.05" fill="#000000" stroke="none" pointer-events="none"/><path d="M 0 0 L 20 20 L 20 60.87 L 0 40.87 Z" fill-opacity="0.1" fill="#000000" stroke="none" pointer-events="none"/><path d="M 20 60.87 L 20 20 L 0 0 M 20 20 L 315 20" fill="none" stroke="rgb(0, 0, 0)" stroke-miterlimit="10" pointer-events="none"/></g></svg>