<?xml version="1.0" encoding="UTF-8"?>
<svg id="Ebene_1" data-name="Ebene 1" xmlns="http://www.w3.org/2000/svg" viewBox="0 0 161 111">
  <defs>
    <style>
      .cls-1 {
        fill: none;
        stroke: #1d1d1b;
        stroke-miterlimit: 10;
      }
    </style>
  </defs>
  <line class="cls-1" x1=".5" y1="110.5" x2="100.5" y2="110.5"/>
  <line class="cls-1" x1=".5" y1="80.5" x2=".5" y2="110.5"/>
  <line class="cls-1" x1="100.5" y1="80.5" x2="100.5" y2="110.5"/>
  <line class="cls-1" x1="100.5" y1="110.5" x2="160.5" y2="80.5"/>
  <line class="cls-1" x1="160.5" y1="50.5" x2="160.5" y2="80.5"/>
  <line class="cls-1" x1="90.5" y1="80.5" x2="100.5" y2="80.5"/>
  <line class="cls-1" x1=".5" y1="80.5" x2="10.5" y2="80.5"/>
  <line class="cls-1" x1="100.5" y1="80.5" x2="160.5" y2="50.5"/>
  <line class="cls-1" x1="90.5" y1="80.5" x2="150.5" y2="50.5"/>
  <line class="cls-1" x1=".5" y1="80.5" x2="10.5" y2="75.5"/>
  <line class="cls-1" x1="90.5" y1="80.5" x2="90.5" y2="60.5"/>
  <line class="cls-1" x1="10.5" y1="80.5" x2="10.5" y2="60.5"/>
  <line class="cls-1" x1=".5" y1="30.5" x2="60.5" y2=".5"/>
  <line class="cls-1" x1="100.5" y1="60.5" x2="160.5" y2="30.5"/>
  <line class="cls-1" x1="90.5" y1="60.5" x2="100.5" y2="60.5"/>
  <line class="cls-1" x1=".5" y1="60.5" x2="10.5" y2="60.5"/>
  <line class="cls-1" x1=".5" y1="30.5" x2=".5" y2="60.5"/>
  <line class="cls-1" x1="100.5" y1="30.5" x2="100.5" y2="60.5"/>
  <line class="cls-1" x1="160.5" y1=".5" x2="160.5" y2="30.5"/>
  <line class="cls-1" x1="100.5" y1="30.5" x2="160.5" y2=".5"/>
  <line class="cls-1" x1=".5" y1="30.5" x2="100.5" y2="30.5"/>
  <line class="cls-1" x1="60.5" y1=".5" x2="160.5" y2=".5"/>
  <line class="cls-1" x1="150.5" y1="50.5" x2="160.5" y2="50.5"/>
  <line class="cls-1" x1="150.5" y1="50.5" x2="150.5" y2="35.5"/>
  <ellipse class="cls-1" cx="66.82" cy="22.34" rx="35.05" ry="4.66" transform="translate(-1.08 3.53) rotate(-3)"/>
  <ellipse class="cls-1" cx="95.5" cy="8" rx="35.05" ry="4.66" transform="translate(-.29 5.01) rotate(-3)"/>
</svg>