<?xml version="1.0" encoding="UTF-8"?>
<svg id="uuid-572a1c5a-25d3-496a-9219-a6196a9f3564" data-name="Ebene 1" xmlns="http://www.w3.org/2000/svg" viewBox="0 0 70.4 69.15">
  <defs>
    <style>
      .uuid-6016d749-7b7c-488a-b479-0230c01f32ec {
        stroke-width: 4px;
      }

      .uuid-6016d749-7b7c-488a-b479-0230c01f32ec, .uuid-a6e3a6e8-2eb0-465c-b7ea-9f08947a9ac7, .uuid-60f96b61-d55d-4fb8-9669-e9e3ec10ac45 {
        fill: none;
        stroke: #000;
        stroke-miterlimit: 10;
      }

      .uuid-60f96b61-d55d-4fb8-9669-e9e3ec10ac45 {
        stroke-width: 2px;
      }
    </style>
  </defs>
  <g>
    <g>
      <circle cx="35.2" cy="40.37" r="7"/>
      <path d="m35.2,33.87c3.58,0,6.5,2.92,6.5,6.5s-2.92,6.5-6.5,6.5-6.5-2.92-6.5-6.5,2.92-6.5,6.5-6.5m0-1c-4.14,0-7.5,3.36-7.5,7.5s3.36,7.5,7.5,7.5,7.5-3.36,7.5-7.5-3.36-7.5-7.5-7.5h0Z"/>
    </g>
    <path class="uuid-6016d749-7b7c-488a-b479-0230c01f32ec" d="m44.29,54.17c7.41-7.41,7.06-19.76-.79-27.61"/>
    <path class="uuid-60f96b61-d55d-4fb8-9669-e9e3ec10ac45" d="m51.64,62.23c12.08-12.08,12-31.71-.18-43.89"/>
    <path class="uuid-a6e3a6e8-2eb0-465c-b7ea-9f08947a9ac7" d="m58.08,68.79c15.71-15.71,15.77-41.08.13-56.72"/>
    <path class="uuid-6016d749-7b7c-488a-b479-0230c01f32ec" d="m26.11,54.17c-7.41-7.41-7.06-19.76.79-27.61"/>
    <path class="uuid-60f96b61-d55d-4fb8-9669-e9e3ec10ac45" d="m18.75,62.23c-12.08-12.08-12-31.71.18-43.89"/>
    <path class="uuid-a6e3a6e8-2eb0-465c-b7ea-9f08947a9ac7" d="m12.32,68.79c-15.71-15.71-15.77-41.08-.13-56.72"/>
  </g>
  <g>
    <path d="m17.42,3.44c.88-.18,2.14-.28,3.34-.28,1.86,0,3.06.34,3.9,1.1.68.6,1.06,1.52,1.06,2.56,0,1.78-1.12,2.96-2.54,3.44v.06c1.04.36,1.66,1.32,1.98,2.72.44,1.88.76,3.18,1.04,3.7h-1.8c-.22-.38-.52-1.54-.9-3.22-.4-1.86-1.12-2.56-2.7-2.62h-1.64v5.84h-1.74V3.44Zm1.74,6.14h1.78c1.86,0,3.04-1.02,3.04-2.56,0-1.74-1.26-2.5-3.1-2.52-.84,0-1.44.08-1.72.16v4.92Z"/>
    <path d="m28.18,3.26h7.26v1.46h-5.52v4.48h5.1v1.44h-5.1v6.1h-1.74V3.26Z"/>
    <path d="m39.66,3.26v13.48h-1.74V3.26h1.74Z"/>
    <path d="m42.7,3.44c1.06-.16,2.32-.28,3.7-.28,2.5,0,4.28.58,5.46,1.68,1.2,1.1,1.9,2.66,1.9,4.84s-.68,4-1.94,5.24c-1.26,1.26-3.34,1.94-5.96,1.94-1.24,0-2.28-.06-3.16-.16V3.44Zm1.74,11.92c.44.08,1.08.1,1.76.1,3.72,0,5.74-2.08,5.74-5.72.02-3.18-1.78-5.2-5.46-5.2-.9,0-1.58.08-2.04.18v10.64Z"/>
  </g>
</svg>